<?xml version="1.0" encoding="UTF-8" standalone="no"?>
<!-- Created with Inkscape (http://www.inkscape.org/) -->

<svg
   width="18.700594mm"
   height="18.521833mm"
   viewBox="0 0 18.700594 18.521833"
   version="1.1"
   id="svg5"
   xmlns="http://www.w3.org/2000/svg"
   xmlns:svg="http://www.w3.org/2000/svg">
  <defs
     id="defs2" />
  <g
     id="layer1"
     transform="translate(-24.895568,-141.1038)">
    <rect
       style="fill:#333333;fill-opacity:1;fill-rule:evenodd;stroke-width:0.307777;stop-color:#000000"
       id="rect2142"
       width="2.7914343"
       height="3.1921427"
       x="26.466501"
       y="156.43349"
       ry="0.56403077" />
    <rect
       style="fill:#333333;fill-opacity:1;fill-rule:evenodd;stroke-width:0.307777;stop-color:#000000"
       id="rect2142-3"
       width="2.7914343"
       height="3.1921427"
       x="39.399567"
       y="156.43349"
       ry="0.56403077" />
    <rect
       style="fill:#008080;fill-opacity:1;fill-rule:evenodd;stroke-width:0.264583;stop-color:#000000"
       id="rect2074"
       width="13.512785"
       height="7.6239872"
       x="27.56912"
       y="143.38805"
       ry="2.1634431" />
    <rect
       style="fill:#008080;fill-opacity:1;fill-rule:evenodd;stroke-width:0.264583;stop-color:#000000"
       id="rect846"
       width="17.41444"
       height="8.7678661"
       x="25.642544"
       y="149.1478"
       ry="1.6805372" />
    <ellipse
       style="fill:#008080;fill-opacity:1;fill-rule:evenodd;stop-color:#000000"
       id="path2385"
       cx="25.928997"
       cy="149.00426"
       rx="1.0334293"
       ry="0.87377083" />
    <ellipse
       style="fill:#008080;fill-opacity:1;fill-rule:evenodd;stop-color:#000000"
       id="path2385-6"
       cx="42.562733"
       cy="149.10176"
       rx="1.0334293"
       ry="0.87377083" />
    <ellipse
       style="fill:#ffffff;fill-opacity:1;fill-rule:evenodd;stroke-width:0.264583;stop-color:#000000"
       id="path2758"
       cx="27.790224"
       cy="151.88492"
       rx="1.2096806"
       ry="1.1572483" />
    <ellipse
       style="fill:#ffffff;fill-opacity:1;fill-rule:evenodd;stroke-width:0.264583;stop-color:#000000"
       id="path2758-7"
       cx="40.754974"
       cy="151.90146"
       rx="1.2096806"
       ry="1.1572483" />
    <path
       id="rect3270"
       style="fill:#539ad9;fill-opacity:1;fill-rule:evenodd;stroke-width:0.241766;stop-color:#000000"
       d="m 30.089245,144.55179 h 8.135335 c 0.349961,0 0.6317,0.29623 0.6317,0.66417 v 3.43691 h -9.398735 v -3.43691 c 0,-0.36794 0.281738,-0.66417 0.6317,-0.66417 z" />
    <path
       id="rect3676"
       style="fill:#333333;fill-rule:evenodd;stroke-width:0.264583;stop-color:#000000"
       d="m 31.596813,154.22891 c 1.623158,-0.57384 3.417493,-0.39341 5.260162,0 0.383027,0.0818 0.706965,0.3153 0.706965,0.70696 v 1.01444 c 0,0.39166 -0.334104,0.82685 -0.706965,0.70697 -1.76339,-0.56695 -3.517168,-0.58907 -5.260162,0 -0.371042,0.1254 -0.706965,-0.31531 -0.706965,-0.70697 v -1.01444 c 0,-0.39166 0.337703,-0.57641 0.706965,-0.70696 z" />
    <ellipse
       style="fill:#333333;fill-opacity:1;fill-rule:evenodd;stroke-width:0.264583;stop-color:#000000"
       id="path4149"
       cx="40.833145"
       cy="143.58995"
       rx="2.640897"
       ry="2.4861541" />
    <ellipse
       style="fill:#333333;fill-opacity:1;fill-rule:evenodd;stroke-width:0.264583;stop-color:#000000"
       id="path4151"
       cx="39.342106"
       cy="146.33424"
       rx="1.8804096"
       ry="1.8847647" />
    <ellipse
       style="fill:#333333;fill-opacity:1;fill-rule:evenodd;stroke-width:0.264583;stop-color:#000000"
       id="path4153"
       cx="38.172241"
       cy="148.65718"
       rx="1.0312008"
       ry="1.1605957" />
    <ellipse
       style="fill:#333333;fill-opacity:1;fill-rule:evenodd;stroke-width:0.264583;stop-color:#000000"
       id="path4155"
       cx="38.167316"
       cy="150.33638"
       rx="0.56712455"
       ry="0.573385" />
    <ellipse
       style="fill:#333333;fill-opacity:1;fill-rule:evenodd;stroke-width:0.264583;stop-color:#000000"
       id="path4157"
       cx="37.895493"
       cy="149.71341"
       rx="0.42449799"
       ry="0.54568231" />
    <path
       style="fill:#333333;fill-opacity:1;fill-rule:evenodd;stop-color:#000000"
       id="path4315"
       d="m 134.09028,574.33492 -4.61404,-1.08759 -4.4717,1.57356 1.08759,-4.61404 -1.57355,-4.4717 4.61403,1.08759 4.47171,-1.57356 -1.0876,4.61404 z"
       transform="matrix(0.1040166,0.11888881,-0.11888881,0.1040166,88.56747,77.0636)" />
    <rect
       style="fill:#ffffff;fill-opacity:1;fill-rule:evenodd;stroke-width:0.269005;stop-color:#000000"
       id="rect4979"
       width="1.1753842"
       height="4.2366662"
       x="69.132179"
       y="149.42551"
       transform="matrix(1,0,-0.25327688,0.96739383,0,0)" />
  </g>
</svg>
